<svg width="500.13" height="500.13" xmlns="http://www.w3.org/2000/svg">

 <g>
  <title>Layer 1</title>
  <g id="svg_1">
   <g id="svg_2">
    <path id="svg_3" d="m250.065,6.448c-135.058,0 -244.617,109.498 -244.617,244.624c0,135.054 109.559,244.596 244.617,244.596c135.145,0 244.617,-109.541 244.617,-244.596c0,-135.126 -109.472,-244.624 -244.617,-244.624m0,411.57c-92.17,0 -166.936,-74.735 -166.936,-166.946c0,-92.254 74.766,-166.974 166.936,-166.974c92.228,0 166.994,74.721 166.994,166.974c0,92.211 -74.766,166.946 -166.994,166.946" fill="#F5F6F6"/>
    <path id="svg_4" d="m250.065,1.065c-137.829,0 -250,112.153 -250,250.007c0,137.839 112.171,249.993 250,249.993c137.858,0 250,-112.153 250,-249.993c0,-137.854 -112.142,-250.007 -250,-250.007m0,489.206c-131.912,0 -239.235,-107.29 -239.235,-239.199c0,-131.923 107.322,-239.228 239.235,-239.228c131.941,0 239.235,107.305 239.235,239.228c0,131.909 -107.294,239.199 -239.235,239.199" fill="#04984A"/>
    <path id="svg_5" d="m250.065,490.271c-131.912,0 -239.235,-107.29 -239.235,-239.199c0,-131.923 107.322,-239.228 239.235,-239.228c131.941,0 239.235,107.305 239.235,239.228c0,131.909 -107.294,239.199 -239.235,239.199z" stroke-width="0.13" stroke="#04984A" fill="none"/>
    <path id="svg_6" d="m250.065,1.065c-137.829,0 -250,112.153 -250,250.007c0,137.839 112.171,249.993 250,249.993c137.858,0 250,-112.153 250,-249.993c0,-137.854 -112.142,-250.007 -250,-250.007z" stroke-width="0.13" stroke="#04984A" fill="none"/>
   </g>
   <g id="svg_7">
    <g id="svg_8">
     <g id="svg_9">
      <g id="svg_10">
       <g id="svg_11">
        <path id="svg_12" d="m44.931,187.564l-5.441,-2.107l-3.218,11.487l5.585,0.866c-19.669,21.53 -2.929,35.34 -1.01,36.495c5.181,3.103 4.705,-7.533 4.373,-9.654c-0.404,-2.092 -0.548,-5.354 -0.289,-6.681c1.385,-6.667 4.589,-4.199 5.181,-3.333c0.649,0.88 3.983,3.838 4.719,11.631l4.589,-3.218c-0.621,-5.181 -4.142,-11.487 -5.21,-12.497c-8.543,-8.038 -10.996,6.422 -12.353,9.769c-1.385,3.348 -3.247,-0.26 -3.463,-1.212c-2.843,-10.65 3.463,-16.826 6.422,-19.553l22.613,5.31l1.991,-6.321l-25.846,-6.797" fill="#04984A"/>
        <path id="svg_13" d="m44.931,187.564l-5.441,-2.107l-3.218,11.487l5.585,0.866c-19.669,21.53 -2.929,35.34 -1.01,36.495c5.181,3.103 4.705,-7.533 4.373,-9.654c-0.404,-2.092 -0.548,-5.354 -0.289,-6.681c1.385,-6.667 4.589,-4.199 5.181,-3.333c0.649,0.88 3.983,3.838 4.719,11.631l4.589,-3.218c-0.621,-5.181 -4.142,-11.487 -5.21,-12.497c-8.543,-8.038 -10.996,6.422 -12.353,9.769c-1.385,3.348 -3.247,-0.26 -3.463,-1.212c-2.843,-10.65 3.463,-16.826 6.422,-19.553l22.613,5.31l1.991,-6.321l-25.846,-6.797l1.357,-4.185z" stroke-width="0.13" stroke="#04984A" fill="none"/>
        <path id="svg_14" d="m66.721,139.309l-5.181,-2.828l-5.946,10l5.181,3.608c-15.961,9.279 -14.777,22.613 -14.099,24.719c4.82,14.849 13.219,12.107 14.46,11.501c7.562,-3.564 6.912,-15.21 7.086,-18.788l-6.826,-0.144c2.078,5.325 0.621,13.752 -0.39,14.878c-4.69,5.181 -6.681,0.707 -7.143,-0.75c-5.686,-17.937 7.894,-25.975 10.102,-27.187c2.251,-1.27 3.463,-0.144 4.358,0l15.311,8.644l3.103,-5.44l-23.147,-13.004" fill="#04984A"/>
        <path id="svg_15" d="m66.721,139.309l-5.181,-2.843l-5.946,10.015l5.181,3.608c-15.961,9.264 -14.777,22.598 -14.099,24.705c4.82,14.849 13.219,12.122 14.46,11.515c7.562,-3.579 6.912,-15.21 7.086,-18.803l-6.826,-0.13c2.078,5.31 0.621,13.738 -0.39,14.863c-4.69,5.181 -6.681,0.707 -7.143,-0.75c-5.686,-17.923 7.894,-25.975 10.102,-27.187c2.251,-1.255 3.463,-0.144 4.358,0l15.311,8.644l3.103,-5.44l-23.147,-12.988l3.131,-5.209z" stroke-width="0.13" stroke="#04984A" fill="none"/>
       </g>
       <g id="svg_16">
        <path id="svg_17" d="m121.125,78.845c-1.212,8.052 2.958,10.693 5.325,10.895c10.996,0.851 12.483,-5.844 14.604,-8.572c4.344,-0.101 0.823,7.677 -0.144,8.817c-8.759,10.491 -25.586,4.069 -28.212,2.828l-1.472,2.482c28.703,10.39 35.716,-2.872 36.106,-4.459c3.868,-14.849 -8.052,-14.445 -10.361,-14.099c-2.093,11.992 -10.203,10.477 -11.141,8.629c-3.319,-6.407 6.941,-13.334 9.423,-14.82c3.319,1.486 14.344,0.736 16.898,0.505c-3.319,7.157 2.121,17.446 3.247,18.803l3.463,-1.241c-5.917,-8.413 -0.39,-19.914 0.996,-21.631l-2.857,-2.626c-6.306,6.436 -12.988,4.589 -15.73,4.473c-2.699,-0.13 -2.439,-1.241 -1.198,-2.136l22.743,-12.107l9.885,25.123l5.224,-2.496l-9.423,-24.589c34.504,-15.7 81.26,-17.201 84.334,-16.941c3.103,0.245 1.862,6.407 1.515,7.417c-3.232,-0.736 -5.57,0.981 -7.403,1.342c-9.669,-11.732 -17.36,-1.472 -19.063,0.62l4.575,3.738c6.422,-10.664 12.843,-4.719 13.724,-3.232l-4.488,3.853l4.603,3.42c4.964,-7.403 8.731,-6.407 10.145,-5.657c2.843,1.458 0.88,8.759 0.592,11.357c-9.755,-8.759 -29.035,9.163 -23.479,-5.7l-2.987,1.01c-2.093,20.91 23.277,-0.491 27.981,9.019l2.713,-0.115c4.315,-15.57 -1.602,-17.187 -3.348,-18.543c2.872,-1.111 2.107,-5.325 2.107,-7.677c0,0 6.927,0.26 12.006,0.635l-2.987,26.321l5.08,0.39l2.872,-25.845l4.315,0.491l0.621,-5.57l-5.44,-0.519c-5.08,-22.136 -30.81,-14.214 -35.24,-12.843l1.357,5.945c29.309,-10.274 29.655,4.344 29.54,6.436c-57.637,-5.7 -100.799,13.622 -102.675,14.344c-44.851,16.811 -72.443,46.61 -76.022,50.333l5.917,6.176c-26.611,-2.107 -24.489,22.526 -24.244,25.859c4.228,2.713 5.556,-2.857 6.061,-4.214c0.491,-1.342 7.677,-3.723 6.321,4.445l5.325,-0.115l8.399,-23.868l10.26,10.534c-17.086,2.944 -11.083,12.8 -16.35,19.784c-4.055,6.768 -10.376,1.587 -11.357,-0.649l-0.505,3.247c15.845,12.136 18.832,-4.776 21.646,-13.997c1.573,-5.166 7.1,-7.316 11.646,-5.671l2.453,-2.597l-18.154,-19.423m-10.407,23.981c-0.115,0.606 -1.357,2.727 -2.107,0.981c-0.736,-1.732 -4.459,-1.847 -5.844,-0.851c-0.779,0.577 -2.049,0.592 -1.573,-1.616c0.505,-2.222 2.699,-13.088 13.608,-12.107l-4.084,13.593" fill="#04984A"/>
        <path id="svg_18" d="m90.46,120.145c-0.115,0.606 -1.357,2.727 -2.107,0.981c-0.736,-1.732 -4.459,-1.847 -5.844,-0.851c-0.779,0.577 -2.049,0.592 -1.573,-1.616c0.505,-2.222 2.699,-13.088 13.608,-12.107l-4.084,13.593z" stroke-width="0.13" stroke="#04984A" fill="none"/>
        <path id="svg_19" d="m121.125,78.845c-1.212,8.052 2.958,10.693 5.325,10.895c10.996,0.851 12.483,-5.844 14.604,-8.572c4.344,-0.101 0.823,7.677 -0.144,8.817c-8.759,10.491 -25.586,4.069 -28.212,2.828l-1.472,2.482c28.703,10.39 35.716,-2.872 36.106,-4.459c3.868,-14.849 -8.052,-14.445 -10.361,-14.099c-2.093,11.992 -10.203,10.477 -11.141,8.629c-3.319,-6.407 6.941,-13.334 9.423,-14.82c3.319,1.486 14.344,0.736 16.898,0.505c-3.319,7.157 2.121,17.446 3.247,18.803l3.463,-1.241c-5.917,-8.413 -0.39,-19.914 0.996,-21.631l-2.857,-2.626c-6.306,6.436 -12.988,4.589 -15.73,4.473c-2.699,-0.13 -2.439,-1.241 -1.198,-2.136l22.743,-12.107l9.885,25.123l5.224,-2.496l-9.423,-24.589c34.504,-15.7 81.26,-17.201 84.334,-16.941c3.103,0.245 1.862,6.407 1.515,7.417c-3.232,-0.736 -5.57,0.981 -7.403,1.342c-9.669,-11.732 -17.36,-1.472 -19.063,0.62l4.575,3.738c6.422,-10.664 12.843,-4.719 13.724,-3.232l-4.488,3.853l4.603,3.42c4.964,-7.403 8.731,-6.407 10.145,-5.657c2.843,1.457 0.88,8.759 0.592,11.357c-9.755,-8.759 -29.035,9.163 -23.479,-5.7l-2.987,1.01c-2.093,20.91 23.277,-0.491 27.981,9.019l2.713,-0.115c4.315,-15.57 -1.602,-17.187 -3.348,-18.543c2.872,-1.111 2.107,-5.325 2.107,-7.677c0,0 6.927,0.26 12.006,0.635l-2.987,26.321l5.08,0.39l2.872,-25.845l4.315,0.491l0.621,-5.57l-5.44,-0.52c-5.08,-22.136 -30.81,-14.214 -35.24,-12.843l1.357,5.945c29.309,-10.274 29.655,4.344 29.54,6.436c-57.637,-5.7 -100.799,13.622 -102.675,14.344c-44.851,16.811 -72.443,46.61 -76.022,50.333l5.917,6.176c-26.611,-2.107 -24.489,22.526 -24.244,25.859c4.228,2.713 5.556,-2.857 6.061,-4.214c0.491,-1.342 7.677,-3.723 6.321,4.445l5.325,-0.115l8.399,-23.868l10.26,10.534c-17.086,2.944 -11.083,12.8 -16.35,19.784c-4.055,6.768 -10.376,1.587 -11.357,-0.649l-0.505,3.247c15.845,12.136 18.832,-4.776 21.646,-13.997c1.573,-5.166 7.1,-7.316 11.646,-5.671l2.453,-2.597l-18.154,-19.423l20.258,-17.318z" stroke-width="0.13" stroke="#04984A" fill="none"/>
        <path id="svg_20" d="m206.57,61.629c-11.891,6.436 -25.398,-5.411 -28.241,-7.922l-2.396,0.606c11.949,17.692 29.424,14.156 31.026,13.593c15.932,-5.743 12.598,-18.529 11.934,-19.683c-7.331,-12.266 -22.05,-0.952 -24.561,1.486l5.643,4.877c0.621,-1.746 4.055,-5.888 5.412,-6.782c7.129,-4.82 10.318,1.472 10.203,2.597c-0.881,6.51 -7.721,10.536 -9.02,11.228" fill="#04984A"/>
        <path id="svg_21" d="m206.57,61.629c-11.891,6.436 -25.398,-5.411 -28.241,-7.922l-2.396,0.606c11.949,17.692 29.424,14.156 31.026,13.593c15.932,-5.743 12.598,-18.529 11.934,-19.683c-7.331,-12.266 -22.05,-0.952 -24.561,1.486l5.643,4.877c0.621,-1.746 4.055,-5.888 5.412,-6.782c7.129,-4.82 10.318,1.472 10.203,2.597c-0.881,6.51 -7.721,10.536 -9.02,11.228z" stroke-width="0.13" stroke="#04984A" fill="none"/>
       </g>
      </g>
      <g id="svg_22">
       <path id="svg_23" d="m295.753,48.916l0.866,6.09c19.482,4.358 21.906,17.677 22.382,20.563l1.977,0.245l11.501,-24.027l8.788,3.997l-12.281,23.767l5.065,2.179l11.559,-23.68l3.781,1.486l2.496,-5.152c-24.114,-11.992 -49.772,-17.735 -52.846,-18.601l-1.919,5.642c3.954,-0.159 31.012,8.283 31.012,8.283l-1.039,2.511m-6.824,12.527c0,0 -5.469,-7.028 -8.197,-8.413l12.988,-0.13l-4.791,8.543z" fill="#04984A"/>
       <path id="svg_24" d="m320.271,64.746c0,0 -5.469,-7.028 -8.197,-8.413l12.988,-0.13l-4.791,8.543z" stroke-width="0.13" stroke="#04984A" fill="none"/>
       <path id="svg_25" d="m295.753,48.916l0.866,6.09c19.482,4.358 21.906,17.677 22.382,20.563l1.977,0.245l11.501,-24.027l8.788,3.997l-12.281,23.767l5.065,2.179l11.559,-23.68l3.781,1.486l2.497,-5.152c-24.114,-11.992 -49.772,-17.735 -52.846,-18.601l-1.919,5.642c3.954,-0.159 31.012,8.283 31.012,8.283l-1.039,2.511l-31.343,-3.303z" stroke-width="0.13" stroke="#04984A" fill="none"/>
       <path id="svg_26" d="m371.919,63.982c-6.797,-9.077 -17.028,-2.554 -18.27,-0.779c-4.878,6.869 0.029,11.804 1.804,13.031c3.694,2.554 10.722,2.453 12.468,1.587c8.962,-4.546 4.734,-12.858 3.998,-13.839m-5.44,9.812c-2.367,0.419 -5.671,0.779 -9.611,-0.938c-4.373,-1.948 -2.064,-5.902 -0.981,-6.883c0.39,-1.198 11.242,-3.478 15.152,0.952c0.822,0.895 2.626,5.556 -4.56,6.869" fill="#04984A"/>
       <path id="svg_27" d="m366.479,73.794c-2.367,0.419 -5.671,0.779 -9.611,-0.938c-4.373,-1.934 -2.064,-5.902 -0.981,-6.883c0.39,-1.198 11.242,-3.463 15.152,0.967c0.822,0.88 2.626,5.541 -4.56,6.854z" stroke-width="0.13" stroke="#04984A" fill="none"/>
       <path id="svg_28" d="m371.919,63.982c-6.797,-9.062 -17.028,-2.554 -18.27,-0.779c-4.878,6.869 0.029,11.819 1.804,13.031c3.694,2.554 10.722,2.468 12.468,1.587c8.962,-4.532 4.734,-12.858 3.998,-13.839z" stroke-width="0.13" stroke="#04984A" fill="none"/>
       <path id="svg_29" d="m360.721,101.053l1.804,-2.872c-2.107,-7.893 -12.887,-19.582 -14.46,-21.415l-3.406,4.776c1.66,1.141 14.907,9.843 16.062,19.511" fill="#04984A"/>
       <path id="svg_30" d="m360.721,101.053l1.804,-2.872c-2.107,-7.893 -12.887,-19.582 -14.46,-21.415l-3.406,4.776c1.66,1.141 14.907,9.843 16.062,19.511z" stroke-width="0.13" stroke="#04984A" fill="none"/>
       <path id="svg_31" d="m472.026,243.641l-0.621,-11.227l-9.308,0.346c10.636,-12.179 -1.66,-21.068 -3.377,-22.901c7.98,-8.283 6.061,-14.185 5.888,-15.412c-2.107,-15.224 -14.792,-41.026 -15.297,-42.296c-7.504,-17.677 -26.668,-40.535 -27.534,-41.704c-13.507,-17.923 -39.685,-37.072 -39.685,-37.072l-3.637,3.911c0,0 31.329,27.1 32.888,29.164l-6.97,5.036c-2.843,-12.352 -11.516,-11.645 -13.551,-12.093c-2.958,-15.311 -11.978,-14.863 -14.113,-14.459c-9.308,1.948 -9.005,9.38 -8.543,11.227c1.486,5.931 9.135,7.951 12.194,8.023l-0.072,-5.642c-8.038,-0.173 -9.221,-3.651 -9.308,-4.877c-0.534,-5.758 9.351,-3.896 11.386,-2.8c7.244,3.824 6.422,13.247 5.946,16.624c10.578,-4.271 14.777,3.391 14.777,5.57l-12.8,10.188l3.377,4.257l21.257,-16.97l5.917,7.749l-21.675,14.993l2.958,4.589l22.469,-15.138l9.048,13.478c-12.627,-4.098 -19.395,1.991 -20.261,3.131c-7.706,9.683 0.39,17.244 3.204,19.164l1.804,-5.152c-6.148,-2.078 -5.527,-6.652 -5.296,-8.225c1.155,-7.489 11.675,-5.96 13.551,-5.787c6.292,0.606 14.041,9.336 15.961,11.414l-18.01,8.095l0.418,7.663c5.498,2.352 11.501,9.308 14.373,12.093c-9.077,0.779 -12.742,3.738 -14.965,5.051l1.212,2.367c8.687,-6.349 15.672,-0.707 17.837,0.693l2.453,-9.149c-1.905,-3.997 -12.367,-13.247 -13.94,-14.791l12.872,-6.292c5.412,8.629 13.984,35.571 14.286,37.187c3.507,18.716 -6.754,15.974 -8.197,15.585c-4.084,-1.126 -2.756,-10.015 -2.511,-12.453l-6.956,-0.245c-0.678,10.361 4.113,13.565 8.788,15.917c-7.331,6.97 -3.132,14.099 -1.515,15.772l5.542,-3.766c-2.987,-3.117 -2.727,-5.397 -2.727,-6.696c0.058,-5.743 5.354,-2.713 6.451,-2.165c4.43,2.338 4.286,8.702 4.084,9.928c-1.284,7.562 -8.254,7.475 -9.625,7.475c-1.414,0 -13.247,0.159 -13.247,0.159l0,6.104l26.538,-0.967l0,5.484" fill="#04984A"/>
       <path id="svg_32" d="m472.026,243.641l-0.621,-11.227l-9.308,0.346c10.636,-12.179 -1.66,-21.068 -3.377,-22.901c7.98,-8.283 6.061,-14.185 5.888,-15.412c-2.107,-15.224 -14.792,-41.026 -15.297,-42.296c-7.504,-17.677 -26.668,-40.535 -27.534,-41.704c-13.507,-17.923 -39.685,-37.072 -39.685,-37.072l-3.637,3.911c0,0 31.329,27.1 32.888,29.164l-6.97,5.036c-2.843,-12.352 -11.516,-11.645 -13.551,-12.093c-2.958,-15.311 -11.978,-14.863 -14.113,-14.459c-9.308,1.948 -9.005,9.38 -8.543,11.227c1.486,5.931 9.135,7.951 12.194,8.023l-0.072,-5.642c-8.038,-0.173 -9.221,-3.651 -9.308,-4.877c-0.534,-5.758 9.351,-3.896 11.386,-2.8c7.244,3.824 6.422,13.247 5.946,16.624c10.578,-4.271 14.777,3.391 14.777,5.57l-12.8,10.188l3.377,4.257l21.257,-16.97l5.917,7.749l-21.675,14.993l2.958,4.589l22.469,-15.138l9.048,13.478c-12.627,-4.098 -19.395,1.991 -20.261,3.131c-7.706,9.683 0.39,17.244 3.204,19.164l1.804,-5.152c-6.148,-2.078 -5.527,-6.652 -5.296,-8.225c1.155,-7.489 11.675,-5.96 13.551,-5.787c6.292,0.606 14.041,9.336 15.961,11.414l-18.01,8.095l0.418,7.663c5.498,2.352 11.501,9.308 14.373,12.093c-9.077,0.779 -12.742,3.738 -14.965,5.051l1.212,2.367c8.687,-6.349 15.672,-0.707 17.837,0.693l2.453,-9.149c-1.905,-3.997 -12.367,-13.247 -13.94,-14.791l12.872,-6.292c5.412,8.629 13.984,35.571 14.286,37.187c3.507,18.716 -6.754,15.974 -8.197,15.585c-4.084,-1.126 -2.756,-10.015 -2.511,-12.453l-6.956,-0.245c-0.678,10.361 4.113,13.565 8.788,15.917c-7.331,6.97 -3.132,14.099 -1.515,15.772l5.542,-3.766c-2.987,-3.117 -2.727,-5.397 -2.727,-6.696c0.058,-5.743 5.354,-2.713 6.451,-2.165c4.43,2.338 4.286,8.702 4.084,9.928c-1.284,7.562 -8.254,7.475 -9.625,7.475c-1.414,0 -13.247,0.159 -13.247,0.159l0,6.104l26.538,-0.967l0,5.484l6.262,-0.158z" stroke-width="0.13" stroke="#04984A" fill="none"/>
      </g>
     </g>
     <g id="svg_33">
      <path id="svg_34" d="m357.82,410.456l-3.233,-4.329c-36.568,26.509 -86.571,29.914 -89.298,30.261c-35.904,4.416 -73.597,-8.615 -75.848,-9.351c-27.852,-8.846 -51.374,-26.913 -53.106,-28.846l-3.377,3.535l2.482,3.03c-0.678,1.039 -0.678,3.449 1.27,3.983c1.919,0.563 7.518,6.292 7.836,7.98c1.241,6.58 -4.993,7.489 -6.595,7.821c-1.616,0.361 -7.504,-0.303 -5.585,-7.259l-3.492,-0.361c-0.938,23.882 21.589,9.452 30.103,13.204c5.772,2.742 4.762,8.182 4.344,9.423l-5.383,8.961l6.364,2.843l10.679,-23.724c18.212,8.615 39.44,11.025 42.73,11.588l-0.447,2.597l-34.331,-0.693l-0.332,6.826c19.814,0.563 30.882,16.364 31.705,17.836l4.878,0.693l3.969,-25.787c19.64,3.074 41.835,1.371 44.678,1.025l0.332,2.049c0,0 -29.425,8.514 -33.653,9.755l3.218,5.238c20.665,-3.535 30.882,7.374 32.498,9.091l6.003,-0.693l-1.27,-18.976c5.21,-2.381 13.334,-1.818 14.2,-1.01c0.938,0.808 5.585,5.7 -6.566,6.58l2.251,5.455c12.382,-3.42 9.135,-11.313 8.067,-12.612c-4.286,-5.209 -14.965,-4.084 -17.721,-4.084l0,-1.703c12.872,-1.356 21.026,-4.199 24.763,-5.123l7.086,25.571l5.859,-1.804l-7.042,-25.022c16.956,-4.3 37.26,-15.34 41.171,-17.591l0.88,1.703l-27.491,21.472l5.556,4.214c9.337,-9.769 34.216,-6.595 37.289,-6.046l2.28,-2.15l-13.161,-22.035m-186.014,19.078c-3.637,-2.049 -2.511,-13.276 -19.005,-10.895l-0.332,-8.745c0,0 18.76,10.332 23.075,11.573l-3.738,8.067zm48.055,25.556c0,0 -6.71,-8.052 -12.829,-10.448l14.633,0l-1.804,10.448zm40.219,-4.877l14.2,-4.546l0.909,12.959c-2.266,-1.126 -9.554,-7.735 -15.109,-8.413m101.463,-21.011c0,0 -10.91,-1.126 -16.004,-0.101l10.087,-9.221l5.917,9.322z" fill="#04984A"/>
      <path id="svg_35" d="m356.103,432.737c0,0 -10.91,-1.126 -16.004,-0.101l10.087,-9.221l5.917,9.322z" stroke-width="0.13" stroke="#04984A" fill="none"/>
      <path id="svg_36" d="m254.64,453.748l14.2,-4.546l0.909,12.959c-2.266,-1.126 -9.554,-7.735 -15.109,-8.413z" stroke-width="0.13" stroke="#04984A" fill="none"/>
      <path id="svg_37" d="m214.421,458.625c0,0 -6.71,-8.052 -12.829,-10.448l14.633,0l-1.804,10.448z" stroke-width="0.13" stroke="#04984A" fill="none"/>
      <path id="svg_38" d="m166.366,433.069c-3.637,-2.049 -2.511,-13.276 -19.005,-10.895l-0.332,-8.745c0,0 18.76,10.332 23.075,11.573l-3.738,8.067z" stroke-width="0.13" stroke="#04984A" fill="none"/>
      <path id="svg_39" d="m357.82,410.456l-3.233,-4.329c-36.568,26.509 -86.571,29.914 -89.298,30.261c-35.904,4.416 -73.597,-8.615 -75.849,-9.351c-27.851,-8.846 -51.374,-26.913 -53.105,-28.846l-3.377,3.535l2.482,3.03c-0.678,1.039 -0.678,3.449 1.27,3.983c1.919,0.563 7.519,6.292 7.836,7.98c1.241,6.58 -4.993,7.489 -6.595,7.821c-1.616,0.361 -7.504,-0.303 -5.585,-7.259l-3.492,-0.361c-0.938,23.882 21.589,9.452 30.103,13.204c5.772,2.742 4.762,8.182 4.344,9.423l-5.383,8.961l6.364,2.843l10.679,-23.724c18.212,8.615 39.44,11.025 42.73,11.588l-0.447,2.597l-34.331,-0.693l-0.332,6.826c19.814,0.563 30.882,16.364 31.705,17.836l4.878,0.693l3.969,-25.787c19.64,3.074 41.835,1.371 44.678,1.025l0.332,2.049c0,0 -29.425,8.514 -33.653,9.755l3.218,5.238c20.665,-3.535 30.882,7.374 32.498,9.091l6.003,-0.693l-1.27,-18.976c5.21,-2.381 13.334,-1.818 14.2,-1.01c0.938,0.808 5.585,5.7 -6.566,6.58l2.251,5.455c12.382,-3.42 9.135,-11.313 8.067,-12.612c-4.286,-5.209 -14.965,-4.084 -17.721,-4.084l0,-1.703c12.872,-1.356 21.026,-4.199 24.763,-5.123l7.086,25.571l5.859,-1.804l-7.042,-25.022c16.956,-4.3 37.26,-15.34 41.171,-17.591l0.88,1.703l-27.491,21.472l5.556,4.214c9.337,-9.769 34.215,-6.595 37.289,-6.046l2.28,-2.15l-13.161,-22.035l5.44,-3.535z" stroke-width="0.13" stroke="#04984A" fill="none"/>
      <path id="svg_40" d="m192.039,456.129l-0.707,4.214c3.103,0.346 7.533,3.853 9.019,5.325l1.559,-3.521c-3.637,-4.633 -8.183,-5.557 -9.871,-6.018" fill="#04984A"/>
      <path id="svg_41" d="m192.039,456.129l-0.707,4.214c3.103,0.346 7.533,3.853 9.019,5.325l1.559,-3.521c-3.637,-4.633 -8.183,-5.557 -9.871,-6.018z" stroke-width="0.13" stroke="#04984A" fill="none"/>
      <path id="svg_42" d="m339.955,443.516l1.01,3.651c2.511,-2.165 9.813,-3.074 9.813,-3.074l0.115,-3.535c-3.521,-1.111 -10.938,2.958 -10.938,2.958" fill="#04984A"/>
      <path id="svg_43" d="m339.955,443.516l1.01,3.651c2.511,-2.165 9.813,-3.074 9.813,-3.074l0.115,-3.535c-3.521,-1.111 -10.938,2.958 -10.938,2.958z" stroke-width="0.13" stroke="#04984A" fill="none"/>
     </g>
    </g>
    <g id="svg_44">
     <g id="svg_45">
      <g id="svg_46">
       <polyline id="svg_47" points="48.119998931884766,303.4110107421875 27.51300048828125,306.1820068359375 43.270999908447266,292.29998779296875 33.992000579833984,273.5690002441406 51.81399917602539,284.43499755859375 67.08200073242188,269.875 62.4640007019043,289.9620056152344 80.97899627685547,299.9339904785156 60.154998779296875,302.0119934082031 56.1870002746582,321.9259948730469 " fill="#EC2227"/>
       <polygon id="svg_48" points="48.119998931884766,303.4110107421875 27.51300048828125,306.1820068359375 43.270999908447266,292.29998779296875 33.992000579833984,273.5690002441406 51.81399917602539,284.43499755859375 67.08200073242188,269.875 62.4640007019043,289.9620056152344 80.97899627685547,299.9339904785156 60.154998779296875,302.0119934082031 56.1870002746582,321.9259948730469 " stroke-width="0.13" stroke="#EC2227" fill="none"/>
      </g>
      <g id="svg_49">
       <polyline id="svg_50" points="57.138999938964844,347.135986328125 77.74600219726562,352.6619873046875 88.33899688720703,334.6239929199219 89.52200317382812,355.0150146484375 110.0999984741211,359.6319885253906 90.6760025024414,367.25201416015625 92.76899719238281,387.8290100097656 79.5790023803711,371.63800048828125 60.38600158691406,379.97900390625 71.71399688720703,362.6340026855469 " fill="#EC2227"/>
       <polygon id="svg_51" points="57.138999938964844,347.135986328125 77.74600219726562,352.6619873046875 88.33899688720703,334.6239929199219 89.52200317382812,355.0150146484375 110.0999984741211,359.6319885253906 90.6760025024414,367.25201416015625 92.76899719238281,387.8290100097656 79.5790023803711,371.63800048828125 60.38600158691406,379.97900390625 71.71399688720703,362.6340026855469 " stroke-width="0.13" stroke="#EC2227" fill="none"/>
      </g>
     </g>
     <g id="svg_52">
      <g id="svg_53">
       <polyline id="svg_54" points="405.31201171875,392.0140075683594 408.09698486328125,371.4079895019531 388.90399169921875,363.34100341796875 409.9590148925781,359.6319885253906 411.7919921875,339.0260009765625 421.3160095214844,357.0929870605469 442.0669860839844,352.93701171875 427.2900085449219,367.9590148925781 438.4020080566406,385.99700927734375 419.17999267578125,376.73199462890625 " fill="#EC2227"/>
       <polygon id="svg_55" points="405.31201171875,392.0140075683594 408.09698486328125,371.4079895019531 388.90399169921875,363.34100341796875 409.9590148925781,359.6319885253906 411.7919921875,339.0260009765625 421.3160095214844,357.0929870605469 442.0669860839844,352.93701171875 427.2900085449219,367.9590148925781 438.4020080566406,385.99700927734375 419.17999267578125,376.73199462890625 " stroke-width="0.13" stroke="#EC2227" fill="none"/>
      </g>
      <g id="svg_56">
       <polyline id="svg_57" points="443.9580078125,327.9289855957031 440.97100830078125,307.1059875488281 419.9159851074219,304.5509948730469 438.87799072265625,295.5320129394531 434.9389953613281,274.94000244140625 449.4849853515625,289.760009765625 468.02899169921875,279.8179931640625 458.302001953125,298.3169860839844 473.1080017089844,312.20001220703125 452.97698974609375,309.1839904785156 " fill="#EC2227"/>
       <polygon id="svg_58" points="443.9580078125,327.9289855957031 440.97100830078125,307.1059875488281 419.9159851074219,304.5509948730469 438.87799072265625,295.5320129394531 434.9389953613281,274.94000244140625 449.4849853515625,289.760009765625 468.02899169921875,279.8179931640625 458.302001953125,298.3169860839844 473.1080017089844,312.20001220703125 452.97698974609375,309.1839904785156 " stroke-width="0.13" stroke="#EC2227" fill="none"/>
      </g>
     </g>
    </g>
   </g>
   <g id="svg_59">
    <g id="svg_60">
     <path id="svg_61" d="m250.065,418.018c-92.17,0 -166.936,-74.735 -166.936,-166.946c0,-92.254 74.766,-166.974 166.936,-166.974c92.228,0 166.994,74.721 166.994,166.974c0,92.211 -74.766,166.946 -166.994,166.946" fill="#EC2227"/>
     <path id="svg_62" d="m250.065,418.018c-92.17,0 -166.936,-74.735 -166.936,-166.946c0,-92.254 74.766,-166.974 166.936,-166.974c92.228,0 166.994,74.721 166.994,166.974c0,92.211 -74.766,166.946 -166.994,166.946z" stroke-width="0.13" stroke="#EC2227" fill="none"/>
    </g>
    <g id="svg_63">
     <path id="svg_64" d="m294.801,307.567c-0.736,-1.14 -0.981,-2.496 -1.212,-3.838c-0.202,-1.342 -1.472,-1.948 -2.511,-3.002l-1.126,-0.418c-0.303,0.721 -0.952,1.862 -1.27,4.257c-0.274,2.395 0.116,4.156 0.418,5.079l1.977,3.218l1.775,1.862l2.482,-1.66c0.621,-0.404 0.318,-1.241 0.318,-2.886c0,-1.674 -0.115,-1.457 -0.851,-2.612" fill="#FCEE23"/>
     <path id="svg_65" d="m294.801,307.567c-0.736,-1.14 -0.981,-2.496 -1.212,-3.838c-0.202,-1.342 -1.472,-1.948 -2.511,-3.002l-1.126,-0.418c-0.303,0.721 -0.952,1.862 -1.27,4.257c-0.274,2.395 0.116,4.156 0.418,5.079l1.977,3.218l1.775,1.862l2.482,-1.66c0.621,-0.404 0.318,-1.241 0.318,-2.886c0,-1.674 -0.115,-1.457 -0.851,-2.612z" stroke-width="0.13" stroke="#FCEE23" fill="none"/>
     <path id="svg_66" d="m277.498,306.211c-1.126,-0.635 -1.717,-0.317 -3.218,0c-1.457,0.303 -0.303,1.458 0.115,2.078l-0.115,3.521l-0.303,6.739c0.087,1.154 -0.851,5.195 -1.154,6.955c-2.15,-0.404 -2.367,0.736 -2.684,1.66l1.775,1.89c1.948,-0.216 1.948,-0.952 1.948,-2.208c1.977,-0.418 3.969,-3.218 4.907,-4.257l1.414,-4.127c0.635,-3.319 -0.375,-4.69 -1.645,-6.234c-1.241,-1.559 -1.429,-3.016 -0.116,-2.799l1.385,2.496l1.833,-0.216c0.765,-0.52 -0.087,-2.078 -1.039,-3.954c-0.938,-1.847 -1.949,-0.909 -3.103,-1.544" fill="#FCEE23"/>
     <path id="svg_67" d="m277.498,306.211c-1.126,-0.635 -1.717,-0.317 -3.218,0c-1.457,0.303 -0.303,1.458 0.115,2.078l-0.115,3.521l-0.303,6.739c0.087,1.154 -0.851,5.195 -1.154,6.955c-2.15,-0.404 -2.367,0.736 -2.684,1.66l1.775,1.89c1.948,-0.216 1.948,-0.952 1.948,-2.208c1.977,-0.418 3.969,-3.218 4.907,-4.257l1.414,-4.127c0.635,-3.319 -0.375,-4.69 -1.645,-6.234c-1.241,-1.559 -1.429,-3.016 -0.116,-2.799l1.385,2.496l1.833,-0.216c0.765,-0.52 -0.087,-2.078 -1.039,-3.954c-0.938,-1.847 -1.949,-0.909 -3.103,-1.544z" stroke-width="0.13" stroke="#FCEE23" fill="none"/>
     <polyline id="svg_68" points="260.1520080566406,332.5459899902344 259.5610046386719,335.2590026855469 258.05999755859375,336.2980041503906 258.4930114746094,338.17401123046875 261.1910095214844,338.36199951171875 262.21600341796875,337.1499938964844 262.75,335.2590026855469 261.5090026855469,332.6619873046875 260.1520080566406,332.5459899902344 " fill="#FCEE23"/>
     <polygon id="svg_69" points="260.1520080566406,332.5459899902344 259.5610046386719,335.2590026855469 258.05999755859375,336.2980041503906 258.4930114746094,338.17401123046875 261.1910095214844,338.36199951171875 262.21600341796875,337.1499938964844 262.75,335.2590026855469 261.5090026855469,332.6619873046875 " stroke-width="0.13" stroke="#FCEE23" fill="none"/>
     <path id="svg_70" d="m260.094,331.652l-0.765,-1.876l-3.406,1.746l-0.621,2.092l1.977,0.418c1.935,-0.836 2.455,-1.774 2.815,-2.38" fill="#FCEE23"/>
     <path id="svg_71" d="m260.094,331.652l-0.765,-1.876l-3.406,1.746l-0.621,2.092l1.977,0.418c1.935,-0.836 2.455,-1.774 2.815,-2.38z" stroke-width="0.13" stroke="#FCEE23" fill="none"/>
     <path id="svg_72" d="m250.094,335.562c-1.328,0.13 -1.212,0 -1.328,-0.62l-1.688,-0.303l-0.476,2.078l1.948,0.62l1.963,1.025l1.241,-1.645c0.086,-0.635 -0.304,-1.27 -1.66,-1.155" fill="#FCEE23"/>
     <path id="svg_73" d="m250.094,335.562c-1.328,0.13 -1.212,0 -1.328,-0.62l-1.688,-0.303l-0.476,2.078l1.948,0.62l1.963,1.025l1.241,-1.645c0.086,-0.635 -0.304,-1.27 -1.66,-1.155z" stroke-width="0.13" stroke="#FCEE23" fill="none"/>
     <path id="svg_74" d="m254.466,330.165l-3.016,0.851l-0.707,2.367l1.443,1.255c3.132,-1.255 2.901,-2.799 3.204,-3.319l-0.924,-1.154" fill="#FCEE23"/>
     <path id="svg_75" d="m254.466,330.165l-3.016,0.851l-0.707,2.367l1.443,1.255c3.132,-1.255 2.901,-2.799 3.204,-3.319l-0.924,-1.154z" stroke-width="0.13" stroke="#FCEE23" fill="none"/>
     <path id="svg_76" d="m220.136,334.523l-1.544,-3.001l1.342,-3.319l-0.837,-1.356l-1.977,-0.418c-0.736,0.317 -1.472,2.41 -1.746,3.737c-0.318,1.356 0.231,2.727 0.231,4.358c0,1.66 2.309,1.977 3.68,2.193c1.384,0.187 2.092,-1.588 0.851,-2.194" fill="#FCEE23"/>
     <path id="svg_77" d="m220.136,334.523l-1.544,-3.001l1.342,-3.319l-0.837,-1.356l-1.977,-0.418c-0.736,0.317 -1.472,2.41 -1.746,3.737c-0.318,1.356 0.231,2.727 0.231,4.358c0,1.66 2.309,1.977 3.68,2.193c1.384,0.187 2.092,-1.588 0.851,-2.194z" stroke-width="0.13" stroke="#FCEE23" fill="none"/>
     <path id="svg_78" d="m214.955,335.88l-1.039,-3.939l-3.218,-1.025l-0.303,3.737l-1.14,2.15l1.328,2.41l-0.188,2.597l2.396,0.52l0.39,-2.092l-0.534,-1.963l-0.678,-0.736l0.173,-1.126l1.039,1.631l1.66,1.688c0.649,0.707 1.862,0.216 2.828,-1.14c0.894,-1.356 -1.791,-1.962 -2.714,-2.712" fill="#FCEE23"/>
     <path id="svg_79" d="m214.955,335.88l-1.039,-3.939l-3.218,-1.025l-0.303,3.737l-1.14,2.15l1.328,2.41l-0.188,2.597l2.396,0.52l0.39,-2.092l-0.534,-1.963l-0.678,-0.736l0.173,-1.126l1.039,1.631l1.66,1.688c0.649,0.707 1.862,0.216 2.828,-1.14c0.894,-1.356 -1.791,-1.962 -2.714,-2.712z" stroke-width="0.13" stroke="#FCEE23" fill="none"/>
     <path id="svg_80" d="m224.595,330.295c0,0 0.924,-1.342 -0.419,-2.092c-1.356,-0.693 -1.356,-1.443 -1.356,-1.443l-0.823,0.75l-0.621,0.794l-0.39,1.573l-0.26,2.266c0.26,0.62 -0.476,1.025 0.88,1.76c1.328,0.736 1.472,0.837 2.136,0.736l1.501,-1.039l0.087,-1.457l-0.735,-1.848" fill="#FCEE23"/>
     <path id="svg_81" d="m224.595,330.295c0,0 0.924,-1.342 -0.419,-2.092c-1.356,-0.693 -1.356,-1.443 -1.356,-1.443l-0.823,0.75l-0.621,0.794l-0.39,1.573l-0.26,2.266c0.26,0.62 -0.476,1.025 0.88,1.76c1.328,0.736 1.472,0.837 2.136,0.736l1.501,-1.039l0.087,-1.457l-0.735,-1.848z" stroke-width="0.13" stroke="#FCEE23" fill="none"/>
     <path id="svg_82" d="m341.181,359.012l-0.39,-2.078l-1.068,-2.799c0,-0.52 -0.418,-4.964 -0.202,-6.609c0.202,-1.688 -0.534,-3.434 -0.332,-4.776c0.245,-1.371 -0.087,-3.232 0.332,-4.473c0.418,-1.255 0.505,-3.131 0.649,-4.776c0.058,-1.659 -0.332,-2.799 -0.534,-3.622l-1.385,-3.232l0.462,-2.799c0.39,-0.404 1.227,0 1.126,-2.28c-0.115,-2.28 -0.318,-2.583 -0.534,-3.016l-1.053,-2.482l-0.505,-3.103l-0.274,-3.752c0.505,-0.707 0.779,-0.794 0.505,-2.598c-0.462,-2.352 -1.775,-4.344 -1.775,-5.469l-0.087,-4.156c-0.851,-0.938 -2.396,-1.255 -2.179,-2.799c0.202,-1.558 -0.635,-3.42 -1.039,-4.574c-0.447,-1.14 -1.357,-1.039 -1.89,-2.597c-0.534,-1.558 0.231,-3.94 -0.188,-4.964c-0.433,-1.053 -1.126,-3.131 -1.126,-4.574c0,-1.443 -0.433,-2.901 0.274,-4.055l0.736,-2.901l-0.823,-3.319l-0.808,-2.785l-1.082,-3.42l-0.505,-2.482c-0.505,-0.649 -1.357,-1.573 -1.039,-2.929c0.332,-1.342 0.418,-3.002 0.231,-3.608l-1.674,-0.851l-1.01,1.66l-1.385,-0.087l-1.241,-2.092l-1.89,0.736l-0.981,1.948l-1.183,1.573l-2.049,-0.52l-1.241,-2.266l-2.511,0.289l-0.823,3.016l0.476,3.622l-0.159,1.472l0.621,1.963l-1.241,1.371l-1.674,0.39l-1.126,2.078l-3.045,2.597l-1.313,3.002l1.039,4.257l1.126,4.055l-3.521,4.041l-3.103,1.674c-0.418,0.101 -2.482,0.087 -3.247,-1.789c-0.721,-1.847 -1.457,-2.583 -1.313,-3.521c0.101,-0.924 -1.053,-4.17 -1.559,-5.512c-0.534,-1.328 -1.515,-3.002 -2.193,-3.204l-2.569,0.938l-0.231,4.142l0.823,2.713l-0.923,0.823l-1.14,-3.535c0,-0.721 -1.039,-1.962 -0.635,-3.535c0.418,-1.544 -1.025,-6.003 -1.443,-7.259l-1.53,-4.344l-1.371,-2.915l-1.357,-1.746l0.303,-1.977l0.967,-1.457l-1.385,-1.861l2.092,-0.52l0.621,-1.861l0.924,-2.078l0.231,-3.752l0.592,-1.342l0.952,-1.659l3.016,0l1.039,-1.977l0.823,-1.746l0.115,-1.761c1.01,0 0.924,-0.317 2.396,0.505c1.443,0.837 2.049,0.317 3.637,0.519c1.515,0.202 2.338,0.519 3.074,-0.317l0.924,-2.886l0.346,-1.789c1.01,0.851 0.693,1.169 2.482,1.674c1.746,0.519 2.468,1.053 2.67,0.433l-0.736,-2.41c-0.621,-0.505 -0.39,-2.15 0.967,-1.544c1.313,0.635 2.28,0.216 2.583,1.674c0.318,1.429 -0.072,1.963 0.621,2.482l1.833,0.418l1.53,-2.511l0.779,-3.103l0.231,-2.064l1.746,0.087l1.212,-1.126l-1.212,-1.674l0.318,-1.01l4.329,0.39l1.804,-1.544l0.433,-2.944l0.159,-1.833l2.828,0l1.126,-0.837l0.115,-2.886l0.303,-3.232l1.27,-2.482l0.173,-3.117l-1.631,-2.496l0.592,-2.064l2.28,1.14l1.891,0.924l3.088,-0.202l2.323,-1.356l-0.346,-1.443l-0.736,-1.14l-0.361,-1.76l-1.804,-0.938l-0.621,-1.991l-1.66,-1.025l-2.367,-0.736l-1.977,-0.505l-1.241,-0.823l-1.746,-0.938l-2.093,-0.823l-1.804,-1.328l-1.313,-0.75l-4.878,-0.202c-0.534,0 -5.325,-0.115 -7.187,0.317c-1.833,0.39 -2.179,0.635 -2.886,1.025l-2.699,0.519l-1.039,-2.078l-2.179,-0.202c-1.241,0.736 -1.241,2.179 -2.67,1.876c-1.443,-0.332 -1.183,-0.649 -1.977,-1.053l-2.107,-0.332l-3.391,-0.707c-0.837,-0.62 -1.991,-1.746 -3.348,-1.443c-1.357,0.303 -1.126,0.823 -2.482,0.707c-1.357,-0.072 -1.862,-0.072 -2.814,-0.404c-0.909,-0.303 -4.43,-0.101 -5.816,0.635c-1.299,0.722 -2.251,1.544 -4.228,1.457c-1.934,-0.115 -2.583,0.087 -3.521,-0.433l-2.872,-0.519l-1.573,0.303l-4.993,-0.404c-1.039,0.404 -1.66,1.053 -2.987,1.241c-1.385,0.202 -1.068,0.303 -2.092,-0.101l-2.612,-0.332l-1.717,-0.707c-0.548,-0.62 -0.765,-0.202 -2.092,-0.404c-1.357,-0.216 -1.472,-0.837 -2.006,-1.039l-3.103,-0.736c-1.126,0.216 -1.429,-0.317 -2.814,-0.418c-1.328,-0.101 -2.165,-0.534 -2.901,-1.66l-3.521,-1.241c-0.794,0 -1.241,-0.115 -2.569,-0.115c-1.385,0 -1.977,0.115 -2.107,-1.126c-0.087,-1.241 -0.289,-2.395 -0.087,-3.738c0.216,-1.356 0.534,-2.078 0.808,-2.496l0.433,-3.42l0.534,-1.76l0.736,-2.699l-1.472,-1.746l-0.621,-2.597l2.367,-2.698l2.093,-3.218l-0.621,-2.482l-2.064,-1.169l-0.534,-1.761l-1.862,-1.212l-1.357,-2.193l-0.303,-2.179l-0.851,-2.193l-2.136,-0.924l-0.649,-2.165l-1.746,0l-1.472,0.722l-0.303,1.241l-1.66,1.457l0.332,2.381l0.823,1.558l-1.054,1.14l-0.534,2.064c-1.039,-0.404 -0.592,-0.924 -2.136,-0.823c-1.587,0.101 -1.89,0.418 -2.208,-0.202l-2.468,-0.837l-2.915,-0.317l-1.991,-1.876l-1.558,-1.544l-2.136,-1.14l-0.967,-1.861l-0.534,-2.381l-0.592,-2.078l0.289,-2.092l-1.559,-1.328l-0.621,-1.862l-2.251,-1.356l-1.963,-0.837l-2.294,-0.519l-0.837,2.597l0.419,1.977l1.862,1.429l1.357,1.053l1.457,1.154l-1.154,1.111l-2.309,-1.429l-2.251,-1.025l-1.587,0.707l-0.693,1.356l-0.823,-1.457l-1.068,-1.977l-2.266,-1.443l-1.544,-1.458l-1.154,-1.241l-1.472,-1.356l-1.862,-1.861l-2.67,-1.559l-2.309,-1.558c-1.025,-0.303 -1.53,-0.404 -1.53,-1.862c0,-1.457 -0.418,-2.482 -1.27,-2.482l-1.429,0.418l-0.649,1.963l-1.241,1.862l-0.736,2.049l0,2.525l2.28,0l1.241,-0.837l2.309,0.837l0.621,1.53l0,1.977l-2.396,0.938l-2.814,2.612l-1.01,2.381l-1.126,0.851c-0.534,0.173 -2.424,0.707 -3.752,1.631c-1.357,0.938 -2.093,1.876 -2.396,2.987l-0.39,2.511l-0.404,2.395l-1.688,2.165l-0.621,3.824l0.534,3.434c0.592,0.303 -0.144,0.823 1.328,1.039c1.457,0.217 2.28,0.318 2.901,-0.216l1.66,-0.722l1.27,1.775c0.505,0.418 1.559,2.886 5.585,3.824l0.924,1.342l1.559,3.131l1.775,2.482l2.482,1.14l2.424,1.255l2.136,0.087l2.179,-0.837l2.525,-0.087l0.289,1.861l0.087,2.309l0.924,2.064l1.977,1.126l0.837,1.573l0.318,0.938l-0.202,2.468l0,1.458l-2.078,-0.606l-1.862,0.505l-1.746,0.433l-2.713,-1.674l-3.132,0.303c-0.39,0.433 -0.534,1.154 -1.847,1.039c-1.385,-0.101 -0.621,-0.606 -1.948,-0.938c-1.385,-0.303 -2.828,-0.519 -3.521,-0.404l-1.472,0.736l0.476,1.963l-0.476,3.824l-0.332,2.929l-1.862,1.761c-1.025,0.202 -2.367,0 -2.482,1.313c-0.115,1.356 0.39,2.814 -0.621,2.078l-2.598,-1.212c-0.303,-0.635 -0.303,-1.255 -1.804,-1.154c-1.4,0.115 -2.569,-0.924 -2.67,0.519c-0.115,1.443 0.418,2.612 0,3.319l-1.559,2.597l-1.241,1.761l-1.039,1.761l-1.775,1.876l0.231,2.28c1.154,0.216 0.39,-0.202 1.342,1.227c0.938,1.458 2.829,3.434 3.608,4.459l6.35,4.574l2.93,1.674l2.251,1.025l4.171,2.179c0.909,0.303 1.025,0.736 2.482,0.736c1.443,0 2.396,-0.087 3.608,0l2.093,1.025l0.649,2.294l-0.231,2.799l-1.746,1.544l0.621,2.684l0.808,1.991l0.115,2.597l-1.66,2.064l-2.064,0.938l-2.193,0.924l-0.216,2.309l-1.357,1.111l-0.404,1.154l0.621,2.179l-0.621,2.901l0.938,2.511l1.66,0.707l0.938,1.66l1.039,1.068l1.328,0.996l1.775,0.722l1.631,0.534l-0.707,1.342l-0.924,1.573l-0.115,1.559l-1.097,0.909l-0.462,2.193l0.231,1.761c0.909,0.317 0.39,1.241 1.862,1.559c1.472,0.303 1.212,0.519 2.367,0.519c1.154,0 0.419,0.101 1.891,0.101c1.429,0 1.357,0.289 2.482,0l2.28,0.289l0,1.255l-2.598,0.952l-1.342,1.674l-1.241,2.987l-0.318,2.28l0.851,2.193l1.212,2.8l0.924,2.179l1.154,1.429l-0.39,1.775l-1.472,2.395c0.317,0.722 -0.303,0.606 1.053,1.443c1.313,0.808 1.544,1.039 0.101,2.294c-1.457,1.227 -0.649,2.064 -0.303,2.915l1.01,2.367c0.851,1.14 1.241,1.14 1.039,2.901c-0.188,1.775 -0.39,2.468 -0.39,2.468l-0.447,3.131l0.837,3.521l1.14,2.294c1.039,0.635 0.952,-0.317 1.371,1.154c0.404,1.443 1.328,2.266 0.404,2.554l-1.054,1.068l0.736,3.319c0.231,0.707 0.029,0 0.534,1.862c0.476,1.876 0.433,2.901 -0.115,3.103l-1.457,0.317l-0.202,2.511l0.115,2.367l0.202,1.963l1.775,2.294l0.678,1.053l0.332,0.823l2.309,-0.621l0.938,-1.169l-0.534,-2.381l-2.064,-1.53l-0.115,-2.294l0.202,-2.496l0.592,-0.707l-0.173,1.732l0,2.064l0.938,2.006l1.342,0.303l1.126,-0.736l0.736,1.573l0.231,2.583l-0.346,1.457l0.346,2.367c0.736,0.115 0.303,1.039 1.746,0.332c1.472,-0.721 1.66,-1.154 1.89,-1.674l0.274,-1.429l-0.895,-0.635l0.621,-1.76l0,-2.309l-0.418,-3.507l-0.462,-1.559l-1.241,-1.241l-0.216,-3.333l0.332,-2.771l1.241,-1.587l1.357,0.115l0.534,0.62l-1.357,2.179l1.559,2.395l2.28,1.948l0.534,1.357l-0.534,2.713l-1.126,-0.332l-1.688,0.534l-0.058,2.179l1.833,0.938l0.505,2.28l1.068,1.342l2.064,-0.505l1.342,-1.457l0.938,-1.66l-1.126,-1.876l-0.433,-1.861l0.317,-1.342l1.862,0.072l0.534,-1.645l0.173,-2.395l-1.732,-2.165l-0.101,-1.227l1.429,-0.967c0,0 -0.621,3.752 1.948,4.069c0.447,-1.573 0.765,-4.777 1.486,-4.777c0.707,0 0.707,0.404 2.179,0.52c1.429,0.115 2.785,-0.115 2.785,0.303c0,0.419 0.115,2.496 1.039,0.231l1.357,0.404l1.357,1.443l2.367,-0.404l1.891,2.569l0.418,2.713l1.039,-0.52l-0.245,-1.977l1.66,0.115l2.093,1.14c0.216,0.837 0,1.457 0.101,2.785c0.115,1.356 -0.621,1.761 0.707,2.496l1.775,0.534l1.674,1.111c0.505,0.13 0.952,1.068 2.468,0.649c1.587,-0.418 2.093,-0.332 2.944,-1.154l1.241,-1.241l1.227,-1.14l0.938,1.14l1.544,-0.216l0.317,-1.039l0,-1.862l0.837,0.837l2.064,0.101l1.66,-1.356l0.967,-1.732l2.049,-1.169l1.559,-1.342l0.621,1.559l1.775,0l2.583,-1.14l2.987,-2.28l1.977,-1.876l1.241,-2.698l0.852,-2.28c0.649,-0.62 0.216,-1.977 0.649,-3.434c0.39,-1.429 0.476,-2.179 1.126,-2.28l1.66,0.635l-0.318,4.344l-2.309,4.055c-0.39,0.736 -1.126,3.838 0.433,3.838c1.544,0 2.583,-0.823 3.016,-1.862l1.66,-3.218l0.39,-4.17l0,-5.787l-0.39,-6.436c1.544,0 6.508,0.216 8.615,0.216c2.035,0 1.862,-0.62 2.453,-0.62l2.179,-0.837l1.371,-1.457c0.202,-1.039 -0.101,-2.799 1.241,-3.016c1.357,-0.202 2.511,-0.303 2.8,-1.025l1.688,-1.443l2.482,3.002c0.895,0.823 3.608,5.599 4.849,7.258c1.27,1.66 1.66,3.117 2.28,4.142l0.952,3.622l0.505,2.597l0.938,2.511l0.923,2.8l1.703,2.049l0.188,5.31l0.404,2.915l-1.948,1.14l-0.346,4.964l-0.39,1.963l0.505,1.371l1.862,3.406l0.534,4.459l-1.27,1.457l0.462,1.559l2.251,0.823l1.457,-0.289l0.404,2.684l1.486,1.991l0.707,1.544l0.534,3.824l-0.116,2.496l0.909,1.746l1.977,3.016l2.28,2.078c4.185,12.8 2.626,3.146 6.22,12.959l1.357,1.876l1.66,1.039l1.025,-0.823l-0.404,-2.092l-0.534,-2.569l-1.01,-1.053l-0.736,-2.496l-1.01,-1.631l-0.967,-2.828l-0.361,-3.305l-1.183,-1.775l-0.952,-1.963l-1.241,-1.89l0.13,-1.847l0.202,-1.876l0.318,-2.381l2.049,-1.746l0.88,-1.977l1.948,-0.938l1.631,-0.837l1.155,1.862l0.649,1.963c0.592,0.332 0.707,1.169 2.338,0.433c1.688,-0.722 2.598,-1.039 3.016,-0.202l1.241,2.698l1.183,2.193l1.833,-0.851l1.66,-0.837l0.852,-1.876l-1.061,-1.454m-132.244,-35.369l-0.419,-1.14l0.419,1.14m13.06,2.597l-1.27,-1.862l1.486,0.087l-0.216,1.775m3.233,1.27l-0.981,-2.814l1.183,-0.938l0.418,2.583l-0.62,1.169m21.141,4.012l-0.274,-1.227l0.274,1.227m8.196,-7.576l-2.078,1.053l-1.559,1.963l-1.313,1.559l-2.626,-0.851l-0.621,1.082l-2.078,0.491l-1.025,1.27l-1.862,-0.534l-1.66,0.418l-1.457,-0.635l-0.318,-1.457l1.01,-1.862l1.804,-0.202l2.598,1.025c0.823,-0.404 1.414,-0.823 2.843,-0.621c1.501,0.216 2.958,-0.303 3.781,-1.025l3.521,-2.28l1.04,0.606m54.939,17.98l-0.505,-1.082l-1.357,-0.693l0.563,-1.674l0.621,1.356l0.909,0.433l0.722,0.895c-0.001,0.448 0.374,1.068 -0.953,0.765m2.453,3.362l-0.534,-1.443l0.534,1.443" fill="#FCEE23"/>
     <path id="svg_83" d="m311.959,345.288l-0.534,-1.443l0.534,1.443z" stroke-width="0.13" stroke="#FCEE23" fill="none"/>
     <path id="svg_84" d="m309.506,341.926l-0.505,-1.082l-1.357,-0.693l0.563,-1.674l0.621,1.356l0.909,0.433l0.721,0.895c0,0.448 0.375,1.068 -0.952,0.765z" stroke-width="0.13" stroke="#FCEE23" fill="none"/>
     <path id="svg_85" d="m254.568,323.946l-2.078,1.053l-1.559,1.963l-1.313,1.558l-2.626,-0.851l-0.621,1.082l-2.078,0.491l-1.025,1.27l-1.862,-0.534l-1.66,0.418l-1.458,-0.635l-0.317,-1.458l1.01,-1.862l1.804,-0.202l2.598,1.025c0.823,-0.404 1.414,-0.823 2.843,-0.621c1.501,0.217 2.958,-0.303 3.781,-1.025l3.521,-2.28l1.04,0.608z" stroke-width="0.13" stroke="#FCEE23" fill="none"/>
     <path id="svg_86" d="m246.371,331.522l-0.274,-1.227l0.274,1.227z" stroke-width="0.13" stroke="#FCEE23" fill="none"/>
     <polygon id="svg_87" points="225.22999572753906,327.510009765625 224.2480010986328,324.6960144042969 225.4320068359375,323.75799560546875 225.85000610351562,326.34100341796875 " stroke-width="0.13" stroke="#FCEE23" fill="none"/>
     <polygon id="svg_88" points="221.9969940185547,326.239990234375 220.7270050048828,324.3789978027344 222.21400451660156,324.4649963378906 " stroke-width="0.13" stroke="#FCEE23" fill="none"/>
     <path id="svg_89" d="m208.937,323.643l-0.419,-1.14l0.419,1.14z" stroke-width="0.13" stroke="#FCEE23" fill="none"/>
     <polyline id="svg_90" points="201.67799377441406,340.7279968261719 200.3509979248047,341.7669982910156 201.822998046875,343.1960144042969 202.9770050048828,342.25799560546875 201.67799377441406,340.7279968261719 " fill="#FCEE23"/>
     <polygon id="svg_91" points="201.67799377441406,340.7279968261719 200.3509979248047,341.7669982910156 201.822998046875,343.1960144042969 202.9770050048828,342.2439880371094 " stroke-width="0.13" stroke="#FCEE23" fill="none"/>
    </g>
   </g>
  </g>
  <path d="m33.565,271.565c1,0 5.8819,6.07278 9,11c3.85613,6.09344 8,13 13,19l4,3l2,2l1,2" id="svg_92" opacity="undefined" stroke="#000" fill="none"/>
  <rect stroke-dasharray="2,2" id="svg_93" height="54" width="53" y="266.565" x="24.565" opacity="undefined" stroke="#000" fill="#fff"/>
  <line stroke-linecap="undefined" stroke-linejoin="undefined" id="svg_94" y2="390.565" x2="110.565" y1="331.565" x1="59.565" opacity="undefined" stroke-dasharray="2,2" stroke="#000" fill="none"/>
  <ellipse ry="27" rx="25" id="svg_95" cy="363.565" cx="84.565" opacity="undefined" stroke-dasharray="2,2" stroke="#000" fill="#fff"/>
  <ellipse ry="1" rx="3" id="svg_96" cy="375.565" cx="94.565" opacity="undefined" stroke-dasharray="2,2" stroke="#000" fill="#fff"/>
  <ellipse ry="29.5" rx="23" id="svg_97" cy="365.065" cx="418.565" opacity="undefined" stroke-dasharray="2,2" stroke="#000" fill="#fff"/>
  <ellipse ry="33" rx="24" id="svg_98" cy="297.565" cx="450.565" opacity="undefined" stroke-dasharray="2,2" stroke="#000" fill="#fff"/>
  <rect id="svg_99" height="50" width="39" y="395.565" x="127.565" opacity="undefined" stroke-dasharray="2,2" stroke="#000" fill="#fff"/>
  <rect id="svg_100" height="50" width="63" y="423.565" x="188.565" opacity="undefined" stroke-dasharray="2,2" stroke="#000" fill="#fff"/>
  <rect stroke-width="0" id="svg_101" height="34" width="51" y="438.565" x="0" opacity="undefined" stroke-dasharray="2,2" stroke="#000" fill="#54afaf"/>
  <rect id="svg_102" height="18" width="8" y="436.565" x="305.565" opacity="undefined" stroke-dasharray="2,2" stroke="#000" fill="#fff"/>
  <rect id="svg_103" height="13" width="34" y="421.565" x="321.565" opacity="undefined" stroke-dasharray="2,2" stroke="#000" fill="#fff"/>
  <ellipse ry="19" rx="45.5" id="svg_104" cy="445.565" cx="284.065" opacity="undefined" stroke-dasharray="2,2" stroke="#000" fill="#54afaf"/>
  <ellipse ry="22" rx="23.5" id="svg_105" cy="429.565" cx="367.065" opacity="undefined" stroke-dasharray="2,2" stroke="#000" fill="#54afaf"/>
  <ellipse ry="13" rx="52.5" id="svg_106" cy="446.565" cx="323.065" opacity="undefined" stroke-dasharray="2,2" stroke="#000" fill="#54afaf"/>
  <ellipse ry="58.5" rx="15" id="svg_107" cy="318.065" cx="449.565" opacity="undefined" stroke-dasharray="2,2" stroke="#000" fill="#54afaf"/>
  <ellipse ry="6.5" rx="8.5" id="svg_108" cy="341.065" cx="442.065" opacity="undefined" stroke-dasharray="2,2" stroke="#000" fill="#54afaf"/>
  <ellipse ry="51.5" rx="21" id="svg_109" cy="318.065" cx="60.565" opacity="undefined" stroke-dasharray="2,2" stroke="#000" fill="#54afaf"/>
  <ellipse ry="38.5" rx="20" id="svg_110" cy="397.065" cx="110.565" opacity="undefined" stroke-dasharray="2,2" stroke="#000" fill="#54afaf"/>
  <ellipse ry="27" rx="25" id="svg_111" cy="434.565" cx="179.565" opacity="undefined" stroke-dasharray="2,2" stroke="#000" fill="#54afaf"/>
  <ellipse ry="18.5" rx="17" id="svg_112" cy="433.065" cx="334.565" opacity="undefined" stroke-dasharray="2,2" stroke="#000" fill="#54afaf"/>
  <ellipse ry="16" rx="12" id="svg_113" cy="409.565" cx="359.565" opacity="undefined" stroke-dasharray="2,2" stroke="#000" fill="#54afaf"/>
 </g>
</svg>